<svg width="201" height="241" viewBox="0 0 201 241" fill="none" xmlns="http://www.w3.org/2000/svg">
<mask id="mask0_6:149" style="mask-type:alpha" maskUnits="userSpaceOnUse" x="1" y="0" width="199" height="199">
<circle cx="100.5" cy="99.5" r="99.5" fill="#C4C4C4"/>
</mask>
<g mask="url(#mask0_6:149)">
<circle cx="100.5" cy="99.5" r="99.5" fill="#EFF5FF"/>
<path d="M161.635 93.8953C161.635 92.6437 161.91 91.6051 162.459 90.7796C163.009 89.9275 163.794 89.0087 164.814 88.0234C165.468 87.3843 165.939 86.865 166.227 86.4656C166.541 86.0661 166.698 85.64 166.698 85.1873C166.698 84.6015 166.449 84.1488 165.952 83.8292C165.455 83.483 164.827 83.3099 164.068 83.3099C163.231 83.3099 162.446 83.5629 161.713 84.0689C160.981 84.5482 160.405 85.2006 159.986 86.0262L153 82.4711C154.047 80.4472 155.59 78.8627 157.631 77.7176C159.699 76.5725 162.237 76 165.246 76C168.438 76 171.028 76.6657 173.017 77.9972C175.006 79.3287 176 81.2062 176 83.6295C176 84.7479 175.804 85.7332 175.411 86.5854C175.045 87.4109 174.6 88.1166 174.077 88.7025C173.553 89.2617 172.886 89.8875 172.075 90.5799C171.238 91.3255 170.636 91.9247 170.27 92.3774C169.903 92.8301 169.72 93.3361 169.72 93.8953H161.635ZM165.677 105C164.16 105 162.917 104.534 161.949 103.602C160.981 102.67 160.497 101.538 160.497 100.207C160.497 98.8485 160.981 97.73 161.949 96.8512C162.917 95.9458 164.16 95.4931 165.677 95.4931C167.195 95.4931 168.438 95.9458 169.406 96.8512C170.374 97.73 170.858 98.8485 170.858 100.207C170.858 101.538 170.374 102.67 169.406 103.602C168.438 104.534 167.195 105 165.677 105Z" fill="#B6E1F8"/>
<path d="M36.6348 122.895C36.6348 121.644 36.9096 120.605 37.459 119.78C38.0085 118.927 38.7935 118.009 39.814 117.023C40.4681 116.384 40.9391 115.865 41.227 115.466C41.541 115.066 41.698 114.64 41.698 114.187C41.698 113.601 41.4494 113.149 40.9522 112.829C40.4551 112.483 39.8271 112.31 39.0683 112.31C38.2309 112.31 37.446 112.563 36.7133 113.069C35.9807 113.548 35.405 114.201 34.9863 115.026L28 111.471C29.0466 109.447 30.5904 107.863 32.6314 106.718C34.6985 105.573 37.2366 105 40.2457 105C43.438 105 46.0284 105.666 48.0171 106.997C50.0057 108.329 51 110.206 51 112.629C51 113.748 50.8038 114.733 50.4113 115.585C50.0449 116.411 49.6001 117.117 49.0768 117.702C48.5535 118.262 47.8862 118.888 47.0751 119.58C46.2378 120.326 45.636 120.925 45.2696 121.377C44.9033 121.83 44.7201 122.336 44.7201 122.895H36.6348ZM40.6775 134C39.1598 134 37.917 133.534 36.9488 132.602C35.9807 131.67 35.4966 130.538 35.4966 129.207C35.4966 127.848 35.9807 126.73 36.9488 125.851C37.917 124.946 39.1598 124.493 40.6775 124.493C42.1951 124.493 43.438 124.946 44.4061 125.851C45.3743 126.73 45.8584 127.848 45.8584 129.207C45.8584 130.538 45.3743 131.67 44.4061 132.602C43.438 133.534 42.1951 134 40.6775 134Z" fill="#B6E1F8"/>
<path d="M39.8805 46.4904C39.8805 45.7567 40.0358 45.1478 40.3464 44.6639C40.657 44.1644 41.1007 43.6258 41.6775 43.0482C42.0472 42.6736 42.3134 42.3691 42.4761 42.135C42.6536 41.9008 42.7423 41.6511 42.7423 41.3857C42.7423 41.0422 42.6018 40.7769 42.3208 40.5895C42.0398 40.3866 41.6849 40.2851 41.256 40.2851C40.7827 40.2851 40.339 40.4334 39.9249 40.73C39.5108 41.011 39.1854 41.3935 38.9488 41.8774L35 39.7934C35.5916 38.607 36.4642 37.6781 37.6177 37.0069C38.7861 36.3356 40.2207 36 41.9215 36C43.7258 36 45.19 36.3903 46.314 37.1708C47.438 37.9513 48 39.0519 48 40.4725C48 41.1281 47.8891 41.7057 47.6672 42.2052C47.4602 42.6892 47.2088 43.1028 46.913 43.4463C46.6172 43.7741 46.24 44.141 45.7816 44.5468C45.3083 44.9839 44.9681 45.3352 44.7611 45.6006C44.554 45.8659 44.4505 46.1625 44.4505 46.4904H39.8805ZM42.1655 53C41.3077 53 40.6052 52.7268 40.058 52.1804C39.5108 51.6341 39.2372 50.9706 39.2372 50.1901C39.2372 49.3939 39.5108 48.7383 40.058 48.2231C40.6052 47.6924 41.3077 47.427 42.1655 47.427C43.0233 47.427 43.7258 47.6924 44.273 48.2231C44.8203 48.7383 45.0939 49.3939 45.0939 50.1901C45.0939 50.9706 44.8203 51.6341 44.273 52.1804C43.7258 52.7268 43.0233 53 42.1655 53Z" fill="#B6E1F8"/>
<path d="M51.0044 50.7119C51.0044 50.7119 53.9592 47.9934 59.5144 52.8394L62.1146 48.8208C62.1146 48.8208 55.8504 43.8566 51.0044 50.7119Z" fill="#6078BA"/>
<path d="M61.1692 38.8925C61.1692 38.8925 57.7416 43.1474 62.7057 48.1116L59.3963 51.5392C59.3963 51.5392 51.7137 42.0837 61.1692 38.8925Z" fill="#6078BA"/>
<path d="M46.9856 154.841C53.0135 145.503 62.5872 142.903 62.5872 142.903L85.3987 134.393H107.265L130.076 142.903C130.076 142.903 139.65 145.503 145.678 154.841H46.9856Z" fill="#B6E1F8"/>
<path d="M126.176 199.282H161.516C161.516 193.254 161.161 184.626 161.161 184.626C159.034 148.458 132.795 142.785 132.795 142.785C112.229 137.821 123.457 169.615 123.457 169.615C122.866 177.298 123.93 187.581 126.176 199.282Z" fill="#58C3E7"/>
<path d="M111.283 113H81.3801V142.194H111.283V113Z" fill="#B6E1F8"/>
<path d="M111.401 126.592V113H81.3801V119.737C90.0083 126.829 100.291 127.774 111.401 126.592Z" fill="#83D0F3"/>
<path d="M143.314 199.282C143.905 183.562 143.668 179.189 143.55 173.87C143.196 161.933 140.714 151.768 132.795 142.903L111.401 135.93C111.401 135.93 115.893 143.849 96.2726 143.849C96.2726 143.849 83.3895 143.376 81.4983 135.93L59.7506 142.903C59.7506 142.903 41.1942 147.513 38.0029 167.015L48.8768 187.108L48.5222 199.4H143.314V199.282Z" fill="#6078BA"/>
<path d="M134.686 76.4782C135.513 69.7411 134.095 63.3586 134.213 56.7398C134.213 52.2484 133.386 45.6295 127.831 45.0386C120.148 44.2112 117.784 57.4489 117.311 63.2405C116.72 71.1595 118.611 79.6694 120.148 87.352C120.739 90.1887 120.621 95.7438 123.812 97.044C126.53 98.2259 129.249 95.5074 130.667 93.4981C133.977 88.534 133.977 82.1515 134.686 76.4782Z" fill="#6078BA"/>
<path d="M129.013 108.982C125.939 120.801 120.621 124.11 120.621 124.11L113.411 125.529C109.274 125.056 102.182 123.283 102.182 123.283C85.8717 117.728 81.1439 116.191 78.5436 110.045C78.5436 109.691 65.7787 65.3679 65.7787 65.3679C63.6512 42.5565 87.5264 37.8287 91.1904 37.2377C94.7362 36.4104 117.548 30.1461 124.167 52.012C124.167 52.012 134.095 77.3055 129.013 108.982Z" fill="#B6E1F8"/>
<path d="M136.459 29.9097C137.759 37.0013 136.577 46.8115 131.022 51.3028C125.112 56.267 119.911 54.8487 112.82 56.5034C105.374 58.1581 97.6909 58.8673 90.2447 60.2856C85.0441 61.3493 78.8981 61.9403 76.5342 67.4954C73.3429 74.8234 72.752 84.3972 74.8795 91.607C76.6524 97.6349 77.2433 103.426 79.1344 111.109C72.3974 105.436 67.0786 97.2803 67.0786 97.2803C63.651 91.3706 63.651 91.3706 59.8688 80.9695C57.6231 74.9416 55.732 69.6229 55.3774 63.3586C55.0229 55.3214 58.9233 51.7756 63.1782 44.4476C67.1968 37.4741 72.8702 32.6282 80.3164 30.5007C80.3164 30.5007 117.784 32.6282 117.075 24C117.075 24 126.057 26.2457 124.403 32.2736C124.403 32.2736 133.858 30.5007 131.849 24C131.967 24 135.749 25.7729 136.459 29.9097Z" fill="#6078BA"/>
<path d="M76.2978 89.9523C76.2978 89.9523 72.2792 81.2059 65.8967 86.4065C65.8967 86.4065 63.0601 88.6522 66.6059 94.5619C66.6059 94.5619 71.8064 103.072 77.9525 98.3441L76.2978 89.9523Z" fill="#B6E1F8"/>
<path d="M75.7069 69.5047C75.7069 69.5047 75.7069 85.2245 78.6618 93.6163L75.5887 94.2073C75.5887 94.2073 73.934 83.4516 68.3789 83.3334L75.7069 69.5047Z" fill="#6078BA"/>
<path d="M68.2606 199.282H35.2844C35.2844 199.282 35.4026 191.481 35.4026 190.89C35.639 183.207 36.1118 175.407 37.5301 167.842C39.5394 156.968 44.7399 147.395 56.4412 144.558C61.7599 143.258 66.4877 146.567 69.3243 150.822C69.3243 150.94 74.5249 157.441 68.2606 199.282Z" fill="#58C3E7"/>
</g>
<path d="M3.66 227.805H0.06V226.5H8.745V227.805H5.145V237H3.66V227.805ZM14.4137 228.975C15.4237 228.975 16.2237 229.27 16.8137 229.86C17.4137 230.44 17.7137 231.295 17.7137 232.425V237H16.2737V232.59C16.2737 231.82 16.0887 231.24 15.7187 230.85C15.3487 230.46 14.8187 230.265 14.1287 230.265C13.3487 230.265 12.7337 230.495 12.2837 230.955C11.8337 231.405 11.6087 232.055 11.6087 232.905V237H10.1687V225.87H11.6087V230.175C11.9087 229.795 12.2987 229.5 12.7787 229.29C13.2687 229.08 13.8137 228.975 14.4137 228.975ZM27.6076 233.07C27.6076 233.18 27.5976 233.325 27.5776 233.505H21.1276C21.2176 234.205 21.5226 234.77 22.0426 235.2C22.5726 235.62 23.2276 235.83 24.0076 235.83C24.9576 235.83 25.7226 235.51 26.3026 234.87L27.0976 235.8C26.7376 236.22 26.2876 236.54 25.7476 236.76C25.2176 236.98 24.6226 237.09 23.9626 237.09C23.1226 237.09 22.3776 236.92 21.7276 236.58C21.0776 236.23 20.5726 235.745 20.2126 235.125C19.8626 234.505 19.6876 233.805 19.6876 233.025C19.6876 232.255 19.8576 231.56 20.1976 230.94C20.5476 230.32 21.0226 229.84 21.6226 229.5C22.2326 229.15 22.9176 228.975 23.6776 228.975C24.4376 228.975 25.1126 229.15 25.7026 229.5C26.3026 229.84 26.7676 230.32 27.0976 230.94C27.4376 231.56 27.6076 232.27 27.6076 233.07ZM23.6776 230.19C22.9876 230.19 22.4076 230.4 21.9376 230.82C21.4776 231.24 21.2076 231.79 21.1276 232.47H26.2276C26.1476 231.8 25.8726 231.255 25.4026 230.835C24.9426 230.405 24.3676 230.19 23.6776 230.19ZM30.9872 230.385C31.2372 229.925 31.6072 229.575 32.0972 229.335C32.5872 229.095 33.1822 228.975 33.8822 228.975V230.37C33.8022 230.36 33.6922 230.355 33.5522 230.355C32.7722 230.355 32.1572 230.59 31.7072 231.06C31.2672 231.52 31.0472 232.18 31.0472 233.04V237H29.6072V229.05H30.9872V230.385ZM42.7688 233.07C42.7688 233.18 42.7588 233.325 42.7388 233.505H36.2888C36.3788 234.205 36.6838 234.77 37.2038 235.2C37.7338 235.62 38.3888 235.83 39.1688 235.83C40.1188 235.83 40.8838 235.51 41.4638 234.87L42.2588 235.8C41.8988 236.22 41.4488 236.54 40.9088 236.76C40.3788 236.98 39.7838 237.09 39.1238 237.09C38.2838 237.09 37.5388 236.92 36.8888 236.58C36.2388 236.23 35.7338 235.745 35.3738 235.125C35.0238 234.505 34.8488 233.805 34.8488 233.025C34.8488 232.255 35.0188 231.56 35.3588 230.94C35.7088 230.32 36.1838 229.84 36.7838 229.5C37.3938 229.15 38.0788 228.975 38.8388 228.975C39.5988 228.975 40.2738 229.15 40.8638 229.5C41.4638 229.84 41.9288 230.32 42.2588 230.94C42.5988 231.56 42.7688 232.27 42.7688 233.07ZM38.8388 230.19C38.1488 230.19 37.5688 230.4 37.0988 230.82C36.6388 231.24 36.3688 231.79 36.2888 232.47H41.3888C41.3088 231.8 41.0338 231.255 40.5638 230.835C40.1038 230.405 39.5288 230.19 38.8388 230.19ZM48.7966 229.05H50.2366V237H48.7966V229.05ZM49.5166 227.52C49.2366 227.52 49.0016 227.43 48.8116 227.25C48.6316 227.07 48.5416 226.85 48.5416 226.59C48.5416 226.33 48.6316 226.11 48.8116 225.93C49.0016 225.74 49.2366 225.645 49.5166 225.645C49.7966 225.645 50.0266 225.735 50.2066 225.915C50.3966 226.085 50.4916 226.3 50.4916 226.56C50.4916 226.83 50.3966 227.06 50.2066 227.25C50.0266 227.43 49.7966 227.52 49.5166 227.52ZM55.2661 237.09C54.6161 237.09 53.9911 237.005 53.3911 236.835C52.7911 236.655 52.3211 236.43 51.9811 236.16L52.5811 235.02C52.9311 235.27 53.3561 235.47 53.8561 235.62C54.3561 235.77 54.8611 235.845 55.3711 235.845C56.6311 235.845 57.2611 235.485 57.2611 234.765C57.2611 234.525 57.1761 234.335 57.0061 234.195C56.8361 234.055 56.6211 233.955 56.3611 233.895C56.1111 233.825 55.7511 233.75 55.2811 233.67C54.6411 233.57 54.1161 233.455 53.7061 233.325C53.3061 233.195 52.9611 232.975 52.6711 232.665C52.3811 232.355 52.2361 231.92 52.2361 231.36C52.2361 230.64 52.5361 230.065 53.1361 229.635C53.7361 229.195 54.5411 228.975 55.5511 228.975C56.0811 228.975 56.6111 229.04 57.1411 229.17C57.6711 229.3 58.1061 229.475 58.4461 229.695L57.8311 230.835C57.1811 230.415 56.4161 230.205 55.5361 230.205C54.9261 230.205 54.4611 230.305 54.1411 230.505C53.8211 230.705 53.6611 230.97 53.6611 231.3C53.6611 231.56 53.7511 231.765 53.9311 231.915C54.1111 232.065 54.3311 232.175 54.5911 232.245C54.8611 232.315 55.2361 232.395 55.7161 232.485C56.3561 232.595 56.8711 232.715 57.2611 232.845C57.6611 232.965 58.0011 233.175 58.2811 233.475C58.5611 233.775 58.7011 234.195 58.7011 234.735C58.7011 235.455 58.3911 236.03 57.7711 236.46C57.1611 236.88 56.3261 237.09 55.2661 237.09ZM68.7741 228.975C69.7841 228.975 70.5841 229.27 71.1741 229.86C71.7741 230.44 72.0741 231.295 72.0741 232.425V237H70.6341V232.59C70.6341 231.82 70.4491 231.24 70.0791 230.85C69.7091 230.46 69.1791 230.265 68.4891 230.265C67.7091 230.265 67.0941 230.495 66.6441 230.955C66.1941 231.405 65.9691 232.055 65.9691 232.905V237H64.5291V229.05H65.9091V230.25C66.1991 229.84 66.5891 229.525 67.0791 229.305C67.5791 229.085 68.1441 228.975 68.7741 228.975ZM78.188 237.09C77.398 237.09 76.688 236.915 76.058 236.565C75.428 236.215 74.933 235.735 74.573 235.125C74.223 234.505 74.048 233.805 74.048 233.025C74.048 232.245 74.223 231.55 74.573 230.94C74.933 230.32 75.428 229.84 76.058 229.5C76.688 229.15 77.398 228.975 78.188 228.975C78.978 228.975 79.683 229.15 80.303 229.5C80.933 229.84 81.423 230.32 81.773 230.94C82.133 231.55 82.313 232.245 82.313 233.025C82.313 233.805 82.133 234.505 81.773 235.125C81.423 235.735 80.933 236.215 80.303 236.565C79.683 236.915 78.978 237.09 78.188 237.09ZM78.188 235.83C78.698 235.83 79.153 235.715 79.553 235.485C79.963 235.245 80.283 234.915 80.513 234.495C80.743 234.065 80.858 233.575 80.858 233.025C80.858 232.475 80.743 231.99 80.513 231.57C80.283 231.14 79.963 230.81 79.553 230.58C79.153 230.35 78.698 230.235 78.188 230.235C77.678 230.235 77.218 230.35 76.808 230.58C76.408 230.81 76.088 231.14 75.848 231.57C75.618 231.99 75.503 232.475 75.503 233.025C75.503 233.575 75.618 234.065 75.848 234.495C76.088 234.915 76.408 235.245 76.808 235.485C77.218 235.715 77.678 235.83 78.188 235.83ZM91.7378 237.09C90.9478 237.09 90.2378 236.915 89.6078 236.565C88.9778 236.215 88.4828 235.735 88.1228 235.125C87.7728 234.505 87.5978 233.805 87.5978 233.025C87.5978 232.245 87.7728 231.55 88.1228 230.94C88.4828 230.32 88.9778 229.84 89.6078 229.5C90.2378 229.15 90.9478 228.975 91.7378 228.975C92.5278 228.975 93.2328 229.15 93.8528 229.5C94.4828 229.84 94.9728 230.32 95.3228 230.94C95.6828 231.55 95.8628 232.245 95.8628 233.025C95.8628 233.805 95.6828 234.505 95.3228 235.125C94.9728 235.735 94.4828 236.215 93.8528 236.565C93.2328 236.915 92.5278 237.09 91.7378 237.09ZM91.7378 235.83C92.2478 235.83 92.7028 235.715 93.1028 235.485C93.5128 235.245 93.8328 234.915 94.0628 234.495C94.2928 234.065 94.4078 233.575 94.4078 233.025C94.4078 232.475 94.2928 231.99 94.0628 231.57C93.8328 231.14 93.5128 230.81 93.1028 230.58C92.7028 230.35 92.2478 230.235 91.7378 230.235C91.2278 230.235 90.7678 230.35 90.3578 230.58C89.9578 230.81 89.6378 231.14 89.3978 231.57C89.1678 231.99 89.0528 232.475 89.0528 233.025C89.0528 233.575 89.1678 234.065 89.3978 234.495C89.6378 234.915 89.9578 235.245 90.3578 235.485C90.7678 235.715 91.2278 235.83 91.7378 235.83ZM102.324 236.535C102.114 236.715 101.854 236.855 101.544 236.955C101.234 237.045 100.914 237.09 100.584 237.09C99.7843 237.09 99.1643 236.875 98.7243 236.445C98.2843 236.015 98.0643 235.4 98.0643 234.6V230.235H96.7143V229.05H98.0643V227.31H99.5043V229.05H101.784V230.235H99.5043V234.54C99.5043 234.97 99.6093 235.3 99.8193 235.53C100.039 235.76 100.349 235.875 100.749 235.875C101.189 235.875 101.564 235.75 101.874 235.5L102.324 236.535ZM108.31 228.975C109.32 228.975 110.12 229.27 110.71 229.86C111.31 230.44 111.61 231.295 111.61 232.425V237H110.17V232.59C110.17 231.82 109.985 231.24 109.615 230.85C109.245 230.46 108.715 230.265 108.025 230.265C107.245 230.265 106.63 230.495 106.18 230.955C105.73 231.405 105.505 232.055 105.505 232.905V237H104.065V225.87H105.505V230.175C105.805 229.795 106.195 229.5 106.675 229.29C107.165 229.08 107.71 228.975 108.31 228.975ZM121.504 233.07C121.504 233.18 121.494 233.325 121.474 233.505H115.024C115.114 234.205 115.419 234.77 115.939 235.2C116.469 235.62 117.124 235.83 117.904 235.83C118.854 235.83 119.619 235.51 120.199 234.87L120.994 235.8C120.634 236.22 120.184 236.54 119.644 236.76C119.114 236.98 118.519 237.09 117.859 237.09C117.019 237.09 116.274 236.92 115.624 236.58C114.974 236.23 114.469 235.745 114.109 235.125C113.759 234.505 113.584 233.805 113.584 233.025C113.584 232.255 113.754 231.56 114.094 230.94C114.444 230.32 114.919 229.84 115.519 229.5C116.129 229.15 116.814 228.975 117.574 228.975C118.334 228.975 119.009 229.15 119.599 229.5C120.199 229.84 120.664 230.32 120.994 230.94C121.334 231.56 121.504 232.27 121.504 233.07ZM117.574 230.19C116.884 230.19 116.304 230.4 115.834 230.82C115.374 231.24 115.104 231.79 115.024 232.47H120.124C120.044 231.8 119.769 231.255 119.299 230.835C118.839 230.405 118.264 230.19 117.574 230.19ZM124.884 230.385C125.134 229.925 125.504 229.575 125.994 229.335C126.484 229.095 127.079 228.975 127.779 228.975V230.37C127.699 230.36 127.589 230.355 127.449 230.355C126.669 230.355 126.054 230.59 125.604 231.06C125.164 231.52 124.944 232.18 124.944 233.04V237H123.504V229.05H124.884V230.385ZM141.094 229.05V237H139.729V235.8C139.439 236.21 139.054 236.53 138.574 236.76C138.104 236.98 137.589 237.09 137.029 237.09C135.969 237.09 135.134 236.8 134.524 236.22C133.914 235.63 133.609 234.765 133.609 233.625V229.05H135.049V233.46C135.049 234.23 135.234 234.815 135.604 235.215C135.974 235.605 136.504 235.8 137.194 235.8C137.954 235.8 138.554 235.57 138.994 235.11C139.434 234.65 139.654 234 139.654 233.16V229.05H141.094ZM146.116 237.09C145.466 237.09 144.841 237.005 144.241 236.835C143.641 236.655 143.171 236.43 142.831 236.16L143.431 235.02C143.781 235.27 144.206 235.47 144.706 235.62C145.206 235.77 145.711 235.845 146.221 235.845C147.481 235.845 148.111 235.485 148.111 234.765C148.111 234.525 148.026 234.335 147.856 234.195C147.686 234.055 147.471 233.955 147.211 233.895C146.961 233.825 146.601 233.75 146.131 233.67C145.491 233.57 144.966 233.455 144.556 233.325C144.156 233.195 143.811 232.975 143.521 232.665C143.231 232.355 143.086 231.92 143.086 231.36C143.086 230.64 143.386 230.065 143.986 229.635C144.586 229.195 145.391 228.975 146.401 228.975C146.931 228.975 147.461 229.04 147.991 229.17C148.521 229.3 148.956 229.475 149.296 229.695L148.681 230.835C148.031 230.415 147.266 230.205 146.386 230.205C145.776 230.205 145.311 230.305 144.991 230.505C144.671 230.705 144.511 230.97 144.511 231.3C144.511 231.56 144.601 231.765 144.781 231.915C144.961 232.065 145.181 232.175 145.441 232.245C145.711 232.315 146.086 232.395 146.566 232.485C147.206 232.595 147.721 232.715 148.111 232.845C148.511 232.965 148.851 233.175 149.131 233.475C149.411 233.775 149.551 234.195 149.551 234.735C149.551 235.455 149.241 236.03 148.621 236.46C148.011 236.88 147.176 237.09 146.116 237.09ZM158.535 233.07C158.535 233.18 158.525 233.325 158.505 233.505H152.055C152.145 234.205 152.45 234.77 152.97 235.2C153.5 235.62 154.155 235.83 154.935 235.83C155.885 235.83 156.65 235.51 157.23 234.87L158.025 235.8C157.665 236.22 157.215 236.54 156.675 236.76C156.145 236.98 155.55 237.09 154.89 237.09C154.05 237.09 153.305 236.92 152.655 236.58C152.005 236.23 151.5 235.745 151.14 235.125C150.79 234.505 150.615 233.805 150.615 233.025C150.615 232.255 150.785 231.56 151.125 230.94C151.475 230.32 151.95 229.84 152.55 229.5C153.16 229.15 153.845 228.975 154.605 228.975C155.365 228.975 156.04 229.15 156.63 229.5C157.23 229.84 157.695 230.32 158.025 230.94C158.365 231.56 158.535 232.27 158.535 233.07ZM154.605 230.19C153.915 230.19 153.335 230.4 152.865 230.82C152.405 231.24 152.135 231.79 152.055 232.47H157.155C157.075 231.8 156.8 231.255 156.33 230.835C155.87 230.405 155.295 230.19 154.605 230.19ZM161.915 230.385C162.165 229.925 162.535 229.575 163.025 229.335C163.515 229.095 164.11 228.975 164.81 228.975V230.37C164.73 230.36 164.62 230.355 164.48 230.355C163.7 230.355 163.085 230.59 162.635 231.06C162.195 231.52 161.975 232.18 161.975 233.04V237H160.535V229.05H161.915V230.385ZM168.923 237.09C168.273 237.09 167.648 237.005 167.048 236.835C166.448 236.655 165.978 236.43 165.638 236.16L166.238 235.02C166.588 235.27 167.013 235.47 167.513 235.62C168.013 235.77 168.518 235.845 169.028 235.845C170.288 235.845 170.918 235.485 170.918 234.765C170.918 234.525 170.833 234.335 170.663 234.195C170.493 234.055 170.278 233.955 170.018 233.895C169.768 233.825 169.408 233.75 168.938 233.67C168.298 233.57 167.773 233.455 167.363 233.325C166.963 233.195 166.618 232.975 166.328 232.665C166.038 232.355 165.893 231.92 165.893 231.36C165.893 230.64 166.193 230.065 166.793 229.635C167.393 229.195 168.198 228.975 169.208 228.975C169.738 228.975 170.268 229.04 170.798 229.17C171.328 229.3 171.763 229.475 172.103 229.695L171.488 230.835C170.838 230.415 170.073 230.205 169.193 230.205C168.583 230.205 168.118 230.305 167.798 230.505C167.478 230.705 167.318 230.97 167.318 231.3C167.318 231.56 167.408 231.765 167.588 231.915C167.768 232.065 167.988 232.175 168.248 232.245C168.518 232.315 168.893 232.395 169.373 232.485C170.013 232.595 170.528 232.715 170.918 232.845C171.318 232.965 171.658 233.175 171.938 233.475C172.218 233.775 172.358 234.195 172.358 234.735C172.358 235.455 172.048 236.03 171.428 236.46C170.818 236.88 169.983 237.09 168.923 237.09ZM185.221 229.05L181.366 237.795C181.026 238.605 180.626 239.175 180.166 239.505C179.716 239.835 179.171 240 178.531 240C178.141 240 177.761 239.935 177.391 239.805C177.031 239.685 176.731 239.505 176.491 239.265L177.106 238.185C177.516 238.575 177.991 238.77 178.531 238.77C178.881 238.77 179.171 238.675 179.401 238.485C179.641 238.305 179.856 237.99 180.046 237.54L180.301 236.985L176.791 229.05H178.291L181.066 235.41L183.811 229.05H185.221ZM193.53 233.07C193.53 233.18 193.52 233.325 193.5 233.505H187.05C187.14 234.205 187.445 234.77 187.965 235.2C188.495 235.62 189.15 235.83 189.93 235.83C190.88 235.83 191.645 235.51 192.225 234.87L193.02 235.8C192.66 236.22 192.21 236.54 191.67 236.76C191.14 236.98 190.545 237.09 189.885 237.09C189.045 237.09 188.3 236.92 187.65 236.58C187 236.23 186.495 235.745 186.135 235.125C185.785 234.505 185.61 233.805 185.61 233.025C185.61 232.255 185.78 231.56 186.12 230.94C186.47 230.32 186.945 229.84 187.545 229.5C188.155 229.15 188.84 228.975 189.6 228.975C190.36 228.975 191.035 229.15 191.625 229.5C192.225 229.84 192.69 230.32 193.02 230.94C193.36 231.56 193.53 232.27 193.53 233.07ZM189.6 230.19C188.91 230.19 188.33 230.4 187.86 230.82C187.4 231.24 187.13 231.79 187.05 232.47H192.15C192.07 231.8 191.795 231.255 191.325 230.835C190.865 230.405 190.29 230.19 189.6 230.19ZM200 236.535C199.79 236.715 199.53 236.855 199.22 236.955C198.91 237.045 198.59 237.09 198.26 237.09C197.46 237.09 196.84 236.875 196.4 236.445C195.96 236.015 195.74 235.4 195.74 234.6V230.235H194.39V229.05H195.74V227.31H197.18V229.05H199.46V230.235H197.18V234.54C197.18 234.97 197.285 235.3 197.495 235.53C197.715 235.76 198.025 235.875 198.425 235.875C198.865 235.875 199.24 235.75 199.55 235.5L200 236.535Z" fill="#303030"/>
</svg>
